<?xml version="1.0" encoding="UTF-8" standalone="no"?> <svg width="64" height="64" viewBox="0 0 64 64" fill="none" xmlns="http://www.w3.org/2000/svg">
<path d="M10 26C10 27.3261 10.5268 28.5978 11.4645 29.5355C12.4021 30.4732 13.6739 31 15 31C16.3261 31 17.5979 30.4732 18.5355 29.5355C19.4732 28.5978 20 27.3261 20 26V22.09C19.6705 22.0267 19.3355 21.9965 19 22C17.744 22.0399 16.5119 22.3539 15.39 22.92C14.024 23.5987 12.525 23.9675 11 24C10.6655 23.9984 10.3315 23.975 10 23.93V26Z" fill="black"/>
<path d="M19.34 39.19L19.8 36.89L18.47 36.3L17.69 37.86L19.34 39.19Z" fill="black"/>
<path d="M10 21.91C10.3295 21.9733 10.6645 22.0035 11 22C12.256 21.9601 13.4881 21.6461 14.61 21.08C15.976 20.4013 17.475 20.0325 19 20C19.3345 20.0016 19.6685 20.025 20 20.07V20C20 18.6739 19.4732 17.4021 18.5355 16.4645C17.5979 15.5268 16.3261 15 15 15C13.6739 15 12.4021 15.5268 11.4645 16.4645C10.5268 17.4021 10 18.6739 10 20V21.91Z" fill="black"/>
<path d="M4 49H26V44.85C25.9966 43.385 25.591 41.9491 24.8275 40.6989C24.0639 39.4486 22.9717 38.432 21.67 37.76L20.98 41.2C20.9456 41.3678 20.8687 41.524 20.7567 41.6536C20.6446 41.7832 20.5011 41.8818 20.34 41.94C20.2311 41.9801 20.116 42.0004 20 42C19.7744 41.9987 19.5559 41.9212 19.38 41.78L16.77 39.69L15.89 41.45C15.8061 41.6138 15.6786 41.7513 15.5216 41.8473C15.3645 41.9432 15.184 41.994 15 41.994C14.816 41.994 14.6355 41.9432 14.4784 41.8473C14.3214 41.7513 14.1939 41.6138 14.11 41.45L13.23 39.69L10.62 41.78C10.4441 41.9212 10.2256 41.9987 10 42C9.884 42.0004 9.76886 41.9801 9.66 41.94C9.49887 41.8818 9.35539 41.7832 9.24332 41.6536C9.13125 41.524 9.05436 41.3678 9.02 41.2L8.33 37.76C7.02828 38.432 5.93608 39.4486 5.17253 40.6989C4.40898 41.9491 4.00339 43.385 4 44.85V49Z" fill="black"/>
<path d="M13 32.71V34.76L15 38.76L17 34.76V32.71C15.6947 33.0966 14.3053 33.0966 13 32.71Z" fill="black"/>
<path d="M12.31 37.86L11.53 36.3L10.2 36.89L10.66 39.19L12.31 37.86Z" fill="black"/>
<path d="M53 25C51.6155 25 50.2622 25.4105 49.111 26.1797C47.9599 26.9489 47.0627 28.0421 46.5328 29.3212C46.003 30.6003 45.8644 32.0078 46.1345 33.3656C46.4046 34.7235 47.0713 35.9708 48.0503 36.9497C49.0292 37.9287 50.2765 38.5954 51.6344 38.8655C52.9922 39.1356 54.3997 38.997 55.6788 38.4672C56.9579 37.9373 58.0511 37.0401 58.8203 35.889C59.5895 34.7378 60 33.3845 60 32C59.9976 30.1442 59.2594 28.3651 57.9471 27.0529C56.6349 25.7406 54.8558 25.0024 53 25V25ZM52.707 34.707C52.5195 34.8945 52.2652 34.9998 52 34.9998C51.7348 34.9998 51.4805 34.8945 51.293 34.707L48.293 31.707L49.707 30.293L52 32.586L56.293 28.293L57.707 29.707L52.707 34.707Z" fill="black"/>
<path d="M53 4C51.6155 4 50.2622 4.41054 49.111 5.17971C47.9599 5.94888 47.0627 7.04213 46.5328 8.32122C46.003 9.6003 45.8644 11.0078 46.1345 12.3656C46.4046 13.7235 47.0713 14.9708 48.0503 15.9497C49.0292 16.9287 50.2765 17.5954 51.6344 17.8655C52.9922 18.1356 54.3997 17.997 55.6788 17.4672C56.9579 16.9373 58.0511 16.0401 58.8203 14.889C59.5895 13.7378 60 12.3845 60 11C59.9976 9.14422 59.2594 7.36512 57.9471 6.05288C56.6349 4.74064 54.8558 4.00238 53 4V4ZM52.707 13.707C52.5195 13.8945 52.2652 13.9998 52 13.9998C51.7348 13.9998 51.4805 13.8945 51.293 13.707L48.293 10.707L49.707 9.293L52 11.586L56.293 7.293L57.707 8.707L52.707 13.707Z" fill="black"/>
<path d="M53 46C51.6155 46 50.2622 46.4105 49.111 47.1797C47.9599 47.9489 47.0627 49.0421 46.5328 50.3212C46.003 51.6003 45.8644 53.0078 46.1345 54.3656C46.4046 55.7235 47.0713 56.9708 48.0503 57.9497C49.0292 58.9287 50.2765 59.5954 51.6344 59.8655C52.9922 60.1356 54.3997 59.997 55.6788 59.4672C56.9579 58.9373 58.0511 58.0401 58.8203 56.889C59.5895 55.7378 60 54.3845 60 53C59.9976 51.1442 59.2594 49.3651 57.9471 48.0529C56.6349 46.7406 54.8558 46.0024 53 46V46ZM52.707 55.707C52.5195 55.8945 52.2652 55.9998 52 55.9998C51.7348 55.9998 51.4805 55.8945 51.293 55.707L48.293 52.707L49.707 51.293L52 53.586L56.293 49.293L57.707 50.707L52.707 55.707Z" fill="black"/>
<path d="M37 12V31H42V33H37V52H42V54H36C35.7348 54 35.4804 53.8946 35.2929 53.7071C35.1054 53.5196 35 53.2652 35 53V33H31V31H35V11C35 10.7348 35.1054 10.4804 35.2929 10.2929C35.4804 10.1054 35.7348 10 36 10H42V12H37Z" fill="black"/>
<path d="M8 22V26C7.46957 26 6.96086 25.7893 6.58579 25.4142C6.21071 25.0391 6 24.5304 6 24C6 23.4696 6.21071 22.9609 6.58579 22.5858C6.96086 22.2107 7.46957 22 8 22V22Z" fill="black"/>
<path d="M22 26V22C22.5304 22 23.0391 22.2107 23.4142 22.5858C23.7893 22.9609 24 23.4696 24 24C24 24.5304 23.7893 25.0391 23.4142 25.4142C23.0391 25.7893 22.5304 26 22 26V26Z" fill="black"/>
</svg>
